<svg version="1.1" xmlns="http://www.w3.org/2000/svg" xmlns:xlink="http://www.w3.org/1999/xlink" width="21" height="21" viewBox="756.49375,265.5,21,21"><g fill="none" fill-rule="nonzero" stroke="none" stroke-width="1" stroke-linecap="butt" stroke-linejoin="miter" stroke-miterlimit="10" stroke-dasharray="" stroke-dashoffset="0" font-family="none" font-weight="none" font-size="none" text-anchor="none" style="mix-blend-mode: normal"><g id="Group 1"><g id="Group 1" fill="#434a54" stroke="none" font-family="none" font-weight="none" font-size="NaN" text-anchor="start"/><path d="M768.77352,278.09565c-0.24624,0 -0.44561,0.1961 -0.44561,0.43772v3.49978c0,0.24162 0.19933,0.43772 0.44561,0.43772c0.24494,0 0.44428,-0.1961 0.44428,-0.43772v-3.49978c0,-0.24162 -0.19937,-0.43772 -0.44428,-0.43772z" id="Path 1" fill="#434a54" stroke="none"/><path d="M765.3534,278.01169l-3.08132,-1.75022c-0.21238,-0.1205 -0.48468,-0.04873 -0.60713,0.16021c-0.12249,0.20955 -0.04953,0.47681 0.16285,0.59793l3.08132,1.75022c0.21238,0.1205 0.48468,0.04873 0.60713,-0.16021c0.12249,-0.20955 0.05082,-0.47681 -0.16285,-0.59793z" id="Path 1" fill="#434a54" stroke="none"/><path d="M772.46589,274.31963v-5.71204l-5.47214,-3.10759l-5.47214,3.10759v5.71208l-5.02786,2.85567v6.21641l5.47214,3.10825l5.02786,-2.85571l5.02786,2.85571l5.47214,-3.10821v-6.21645zM762.4115,269.11323l4.58225,-2.60322l4.58359,2.60322v5.20579l-4.58359,2.60256l-4.58225,-2.60256zM757.38363,282.88615v-5.20579l4.58225,-2.60256l4.58359,2.60256v5.20579l-4.58359,2.60322zM776.60387,282.88615l-4.58225,2.60322l-4.58225,-2.60322v-5.20579l4.58225,-2.60256l4.58225,2.60256z" id="CompoundPath 1" fill="#ccd1d9" stroke-opacity="0" stroke="#000000"/><path d="M766.68756,267.69434l-3.08132,1.75022c-0.21238,0.1205 -0.28534,0.38838 -0.16285,0.59727c0.12378,0.20955 0.39608,0.28133 0.60846,0.16021l3.08132,-1.75022c0.21238,-0.1205 0.28534,-0.38838 0.16285,-0.59727c-0.12378,-0.20955 -0.39479,-0.28133 -0.60846,-0.16021z" id="Path 1" fill="#434a54" stroke-opacity="0" stroke="#000000"/></g></g></svg>